<svg width="547" height="290" viewBox="0 0 547 290" fill="none" xmlns="http://www.w3.org/2000/svg">
<path d="M474.369 206.938C466.898 222.313 446.206 225.17 434.847 212.397L382.502 153.529C369.753 139.192 378.148 116.432 397.153 113.807L483.929 101.822C502.934 99.1975 517.184 118.83 508.798 136.086L474.369 206.938Z" fill="black"/>
<path d="M326.614 88.1399C320.372 92.7023 312.255 93.8233 305.011 91.1236L292.936 86.6242C286.544 84.2423 281.539 79.146 279.273 72.7119L273.159 55.3517C271.039 49.3306 271.516 42.6991 274.477 37.0437L281.878 22.9073C285.326 16.3217 291.744 11.8085 299.108 10.7915L310.522 9.21508C317.885 8.19807 325.286 10.8026 330.39 16.2071L341.346 27.8083C345.729 32.4494 347.986 38.7033 347.577 45.0738L346.397 63.4412C345.96 70.2486 342.524 76.5107 337.017 80.536L326.614 88.1399Z" fill="black"/>
<path d="M192.188 87.8832L227.52 197.335L135.443 249.115L43.2035 171.664L78.2737 72.0177L192.188 87.8832Z" fill="black"/>
</svg>
