<svg width="645" height="875" viewBox="0 0 645 875" fill="none" xmlns="http://www.w3.org/2000/svg">
<path d="M653.205 697.485C656.268 700.183 658.566 703.712 659.857 707.701L683.377 780.397C685.672 787.492 684.574 795.377 680.422 801.606L651.872 844.443C651.626 844.811 651.317 845.128 650.961 845.377V845.377C648.893 846.825 646.134 845.538 645.818 842.979L641.843 810.823C641.293 806.368 639.534 802.196 636.776 798.801L617.862 775.523C615.973 773.197 613.659 771.292 611.053 769.917L581.168 754.144C579.727 753.384 578.208 752.791 576.639 752.378L548.166 744.873C538.376 742.293 531.574 733.104 531.574 722.46L531.574 673.78C531.574 662.695 538.938 652.967 549.257 650.418L577.809 643.368C584.67 641.673 591.831 643.435 597.16 648.128L653.205 697.485Z" fill="black"/>
<path d="M727.053 164.525C774.622 131.943 839.278 141.62 875.223 186.703L1249.56 656.217C1311.86 734.356 1246.11 848.373 1147.27 833.58L277.521 703.395C178.687 688.602 149.195 560.328 231.644 503.855L727.053 164.525Z" fill="black"/>
</svg>
